<svg class="lds-spinner" width="200px"  height="200px"  xmlns="http://www.w3.org/2000/svg" xmlns:xlink="http://www.w3.org/1999/xlink" viewBox="0 0 100 100" preserveAspectRatio="xMidYMid" style="background: none;"><g transform="rotate(0 50 50)">
  <rect x="47.5" y="18" rx="15.200000000000001" ry="5.76" width="5" height="16" fill="#FFFFFF">
    <animate attributeName="opacity" values="1;0" keyTimes="0;1" dur="1.8s" begin="-1.6363636363636365s" repeatCount="indefinite"></animate>
  </rect>
</g><g transform="rotate(32.72727272727273 50 50)">
  <rect x="47.5" y="18" rx="15.200000000000001" ry="5.76" width="5" height="16" fill="#FFFFFF">
    <animate attributeName="opacity" values="1;0" keyTimes="0;1" dur="1.8s" begin="-1.4727272727272727s" repeatCount="indefinite"></animate>
  </rect>
</g><g transform="rotate(65.45454545454545 50 50)">
  <rect x="47.5" y="18" rx="15.200000000000001" ry="5.76" width="5" height="16" fill="#FFFFFF">
    <animate attributeName="opacity" values="1;0" keyTimes="0;1" dur="1.8s" begin="-1.309090909090909s" repeatCount="indefinite"></animate>
  </rect>
</g><g transform="rotate(98.18181818181819 50 50)">
  <rect x="47.5" y="18" rx="15.200000000000001" ry="5.76" width="5" height="16" fill="#FFFFFF">
    <animate attributeName="opacity" values="1;0" keyTimes="0;1" dur="1.8s" begin="-1.1454545454545455s" repeatCount="indefinite"></animate>
  </rect>
</g><g transform="rotate(130.9090909090909 50 50)">
  <rect x="47.5" y="18" rx="15.200000000000001" ry="5.76" width="5" height="16" fill="#FFFFFF">
    <animate attributeName="opacity" values="1;0" keyTimes="0;1" dur="1.8s" begin="-0.9818181818181819s" repeatCount="indefinite"></animate>
  </rect>
</g><g transform="rotate(163.63636363636363 50 50)">
  <rect x="47.5" y="18" rx="15.200000000000001" ry="5.76" width="5" height="16" fill="#FFFFFF">
    <animate attributeName="opacity" values="1;0" keyTimes="0;1" dur="1.8s" begin="-0.8181818181818182s" repeatCount="indefinite"></animate>
  </rect>
</g><g transform="rotate(196.36363636363637 50 50)">
  <rect x="47.5" y="18" rx="15.200000000000001" ry="5.76" width="5" height="16" fill="#FFFFFF">
    <animate attributeName="opacity" values="1;0" keyTimes="0;1" dur="1.8s" begin="-0.6545454545454545s" repeatCount="indefinite"></animate>
  </rect>
</g><g transform="rotate(229.0909090909091 50 50)">
  <rect x="47.5" y="18" rx="15.200000000000001" ry="5.76" width="5" height="16" fill="#FFFFFF">
    <animate attributeName="opacity" values="1;0" keyTimes="0;1" dur="1.8s" begin="-0.49090909090909096s" repeatCount="indefinite"></animate>
  </rect>
</g><g transform="rotate(261.8181818181818 50 50)">
  <rect x="47.5" y="18" rx="15.200000000000001" ry="5.76" width="5" height="16" fill="#FFFFFF">
    <animate attributeName="opacity" values="1;0" keyTimes="0;1" dur="1.8s" begin="-0.32727272727272727s" repeatCount="indefinite"></animate>
  </rect>
</g><g transform="rotate(294.54545454545456 50 50)">
  <rect x="47.5" y="18" rx="15.200000000000001" ry="5.76" width="5" height="16" fill="#FFFFFF">
    <animate attributeName="opacity" values="1;0" keyTimes="0;1" dur="1.8s" begin="-0.16363636363636364s" repeatCount="indefinite"></animate>
  </rect>
</g><g transform="rotate(327.27272727272725 50 50)">
  <rect x="47.5" y="18" rx="15.200000000000001" ry="5.76" width="5" height="16" fill="#FFFFFF">
    <animate attributeName="opacity" values="1;0" keyTimes="0;1" dur="1.8s" begin="0s" repeatCount="indefinite"></animate>
  </rect>
</g></svg>